<svg width="42" height="30" viewBox="0 0 42 30" fill="none" xmlns="http://www.w3.org/2000/svg">
<path d="M21.42 29.114C21.99 29.114 23.168 28.886 24.27 28.506C26.968 27.556 29.97 27.252 32.972 27.252C35.29 27.252 37.608 27.518 39.698 28.202C39.964 28.316 40.306 28.392 40.61 28.392C41.104 28.392 41.636 27.86 41.636 27.442V25.314C41.636 24.896 41.864 23.604 41.864 23.376C41.826 20.26 39.85 9.924 39.508 7.378C39.356 6.2 39.356 5.022 38.976 4.148C38.558 3.198 37.418 2.818 36.582 2.514C34.036 1.602 31.338 0.727999 28.64 0.727999C26.018 0.727999 23.282 1.526 21.42 3.806C19.558 1.526 16.784 0.727999 14.162 0.727999C11.502 0.727999 8.766 1.564 6.22 2.514C5.384 2.818 4.206 3.198 3.826 4.148C3.484 5.022 3.446 6.124 3.294 7.378C2.952 9.924 1.014 20.26 0.938 23.376C0.938 23.604 1.204 24.896 1.204 25.314V25.732C1.204 26.112 1.166 26.492 1.166 26.872C1.166 27.176 1.128 27.328 1.128 27.442C1.128 28.05 1.888 28.392 2.192 28.392C2.496 28.392 2.8 28.278 3.066 28.202C5.194 27.48 7.55 27.252 9.83 27.252C12.832 27.252 15.91 27.556 18.532 28.506C19.634 28.924 20.85 29.114 21.42 29.114ZM20.242 23.262C19.9 23.262 19.254 22.844 18.798 22.616C16.822 21.666 14.694 21.096 11.616 21.096C9.146 21.096 6.752 21.476 4.396 22.16C3.978 22.274 3.332 22.578 3.18 22.578C2.99 22.578 2.876 22.312 2.876 22.084C2.876 21.324 3.066 20.412 3.218 19.614C3.674 16.954 4.168 14.256 4.548 11.558C4.814 9.772 4.928 7.91 5.232 6.124C5.346 5.364 5.46 4.832 6.068 4.376C7.246 3.54 8.728 3.274 10.096 2.932C11.502 2.59 12.794 2.324 14.2 2.324C15.872 2.324 17.544 2.894 18.912 3.996C19.672 4.604 20.508 5.174 20.584 6.048C20.432 8.784 20.432 13.952 20.432 17.828V22.92C20.432 23.186 20.356 23.262 20.242 23.262ZM22.56 23.262C22.408 23.262 22.37 23.224 22.37 22.92V18.132C22.37 14.218 22.37 8.86 22.218 6.048C22.294 5.174 23.13 4.604 23.89 3.996C25.258 2.894 26.93 2.324 28.602 2.324C29.97 2.324 31.338 2.59 32.744 2.932C34.112 3.274 35.556 3.54 36.734 4.376C37.342 4.832 37.456 5.364 37.57 6.124C37.836 7.91 38.026 9.772 38.254 11.558C38.71 14.864 39.432 18.132 39.812 21.438C39.85 21.628 39.926 21.856 39.926 22.084C39.926 22.236 39.888 22.388 39.812 22.502C39.736 22.578 39.698 22.578 39.622 22.578C39.47 22.578 38.786 22.274 38.406 22.16C36.088 21.476 33.656 21.096 31.224 21.096C28.26 21.096 25.676 21.666 23.054 23.11C22.902 23.186 22.712 23.262 22.56 23.262ZM17.43 7.378C17.886 7.378 18.304 6.96 18.304 6.542C18.304 6.314 18.152 6.048 17.886 5.934C16.328 5.25 14.504 4.832 12.68 4.832C10.894 4.832 9.184 5.212 7.664 5.934C7.398 6.048 7.322 6.2 7.322 6.428C7.322 6.808 7.626 7.188 8.082 7.188C8.158 7.188 8.272 7.15 8.386 7.112C9.564 6.542 10.97 6.276 12.376 6.276C14.048 6.276 15.72 6.656 17.088 7.302C17.202 7.378 17.316 7.378 17.43 7.378ZM25.372 7.378C25.448 7.378 25.6 7.378 25.714 7.302C27.082 6.656 28.754 6.276 30.426 6.276C31.832 6.276 33.238 6.542 34.454 7.112C34.53 7.15 34.644 7.188 34.758 7.188C35.176 7.188 35.48 6.808 35.48 6.428C35.48 6.238 35.404 6.048 35.138 5.934C33.656 5.212 31.908 4.832 30.122 4.832C28.488 4.832 24.498 5.402 24.498 6.542C24.498 6.96 24.878 7.378 25.372 7.378ZM17.43 11.064C17.848 11.064 18.114 10.646 18.114 10.266C18.114 10.038 18.038 9.81 17.772 9.696C15.948 8.898 13.82 8.404 11.73 8.404C10.134 8.404 8.538 8.67 7.094 9.43C6.866 9.544 6.79 9.734 6.79 9.924C6.79 10.228 7.094 10.532 7.436 10.532C7.55 10.532 7.588 10.532 7.702 10.494C8.842 10 10.058 9.772 11.274 9.772C13.288 9.772 15.378 10.342 17.202 11.026C17.278 11.026 17.354 11.064 17.43 11.064ZM25.372 11.064C25.448 11.064 25.524 11.026 25.6 11.026C27.424 10.342 29.514 9.772 31.528 9.772C32.744 9.772 33.96 10 35.1 10.494C35.214 10.532 35.29 10.532 35.328 10.532C35.708 10.532 36.05 10.19 36.05 9.924C36.05 9.734 35.936 9.544 35.708 9.43C34.302 8.67 32.706 8.404 31.072 8.404C28.982 8.404 26.854 8.898 25.03 9.696C24.764 9.81 24.688 10.038 24.688 10.266C24.688 10.646 24.992 11.064 25.372 11.064ZM17.354 14.712C17.696 14.712 17.886 14.37 17.886 14.028C17.886 13.838 17.848 13.686 17.696 13.534L17.62 13.458C17.278 13.154 16.784 13.04 16.366 12.888C14.96 12.356 13.288 12.09 11.654 12.09C9.868 12.09 8.006 12.432 6.486 13.23C6.258 13.344 6.182 13.496 6.182 13.686C6.182 13.99 6.486 14.332 6.828 14.332C6.866 14.332 6.942 14.332 6.98 14.294C8.652 13.838 10.21 13.572 11.958 13.572C13.136 13.572 14.238 13.762 15.378 14.066C15.758 14.18 16.1 14.256 16.442 14.408C16.708 14.522 17.088 14.712 17.354 14.712ZM25.448 14.712C25.752 14.712 26.094 14.522 26.36 14.408C26.74 14.218 27.044 14.18 27.424 14.066C28.64 13.724 29.818 13.572 31.11 13.572C32.744 13.572 34.226 13.876 35.822 14.294C35.86 14.332 35.898 14.332 35.974 14.332C36.316 14.332 36.62 13.99 36.62 13.686C36.62 13.496 36.544 13.344 36.316 13.23C34.796 12.432 32.934 12.09 31.148 12.09C29.514 12.09 27.804 12.356 26.436 12.888C26.018 13.04 25.524 13.192 25.182 13.458L25.106 13.534C24.992 13.686 24.916 13.876 24.916 14.066C24.916 14.408 25.106 14.712 25.448 14.712ZM16.936 18.436C17.354 18.436 17.696 18.018 17.696 17.676C17.696 17.41 17.582 17.258 17.278 17.106C15.606 16.308 13.858 15.966 12.034 15.966C10.134 15.966 8.196 16.346 6.372 16.992C6.068 17.106 5.992 17.334 5.992 17.524C5.992 17.866 6.22 18.17 6.562 18.17C6.638 18.17 6.676 18.17 6.752 18.132C8.386 17.638 9.792 17.182 11.54 17.182C13.212 17.182 15.074 17.752 16.594 18.36C16.708 18.398 16.822 18.436 16.936 18.436ZM25.866 18.436C25.98 18.436 26.094 18.398 26.208 18.36C27.728 17.752 29.59 17.182 31.3 17.182C33.01 17.182 34.416 17.676 36.05 18.132C36.126 18.17 36.164 18.17 36.24 18.17C36.62 18.17 36.81 17.866 36.81 17.562C36.81 17.334 36.734 17.106 36.43 16.992C34.606 16.346 32.668 15.966 30.73 15.966C28.944 15.966 27.196 16.308 25.524 17.106C25.22 17.258 25.106 17.41 25.106 17.676C25.106 18.018 25.448 18.436 25.866 18.436Z" fill="black"/>
</svg>
